<svg xmlns="http://www.w3.org/2000/svg" shape-rendering="crispEdges" viewBox="0 0 16 16"><defs/><path d="m 68,24 c 0.5,0 1.5,0 2,0 5,0 10,0 15,0 v 1 h 5 v 1 h 1 v 1 c 0.75,0 2.25,0 3,0 v 1 c 0.5,0 1.5,0 2,0 v 1 c 0.5,0 1.5,0 2,0 v 1 c 1.33,0 2.67,0 4,0 0,0.5 0,1.5 0,2 0.5,0 1.5,0 2,0 v 1 c 0.5,0 1.5,0 2,0 0,0.5 0,1.5 0,2 h 1 v 1 c 0.5,0 1.5,0 2,0 0,0.5 0,1.5 0,2 0.5,0 1.5,0 2,0 0,0.5 0,1.5 0,2 h 1 c 0,0.5 0,1.5 0,2 0.5,0 1.5,0 2,0 0,0.75 0,2.25 0,3 -0.75,0 -2.25,0 -3,0 0,0.5 0,1.5 0,2 -0.5,0 -1.5,0 -2,0 v 1 c -0.5,0 -1.5,0 -2,0 0,0.5 0,1.5 0,2 -0.5,0 -1.5,0 -2,0 v 1 c -0.5,0 -1.5,0 -2,0 0,0.5 0,1.5 0,2 -0.5,0 -1.5,0 -2,0 v 1 h -1 c -0.5,0 -1.5,0 -2,0 0,-0.5 0,-1.5 0,-2 h -1 c 0,-0.5 0,-1.5 0,-2 l -0.73,-0.27 c -2.14,-1.55 -4.4,-2.91 -6.52,-4.48 -0.43,-0.08 -1.28,-0.22 -1.71,-0.3 L 88,44 h -1 v -1 c -1.67,0 -3.33,0 -5,0 v -1 h -1 v -1 c -1.75,0 -5.25,0 -7,0 v -1 h -1 v -1 c -0.5,0 -1.5,0 -2,0 0,0.5 0,1.5 0,2 h 1 v 1 c -0.75,0 -2.25,0 -3,0 v 1 c -1.33,0 -2.67,0 -4,0 0,0.5 0,1.5 0,2 -0.75,0 -2.25,0 -3,0 v 1 h -1 v 1 h -1 -1 v 1 c -0.5,0 -1.5,0 -2,0 v -1 c -0.5,0 -1.5,0 -2,0 0,0.5 0,1.5 0,2 h 1 c -0.07,0.43 -0.21,1.29 -0.27,1.72 -2.02,2.42 -4.55,4.92 -4.94,8.21 L 50,59 c 0,0.75 0,2.25 0,3 h -1 v 1 c -0.75,0 -2.25,0 -3,0 0,0.5 0,1.5 0,2 h -1 c 0,0.5 0,1.5 0,2 h 1 v -1 h 1 v -1 h 1 c 0,0.75 0,2.25 0,3 h -1 v 5 h -1 c 0,0.5 0,1.5 0,2 h 1 c 0,1.33 0,2.67 0,4 h 1 c 0,0.75 0,2.25 0,3 h 1 c 0,0.5 0,1.5 0,2 l 0.79,0.07 c 0.54,3.02 1.87,5.91 3.96,8.2 0.07,0.42 0.22,1.27 0.3,1.69 0.48,0.02 1.46,0.04 1.94,0.05 C 56,94.5 56,95.5 56,96 h 1 v 1 h 1 v 1 h 1 v 1 c 0.75,0 2.25,0 3,0 v 1 h 1 c 0,0.5 0,1.5 0,2 0.75,0 2.25,0 3,0 v 1 c 0.75,0 2.25,0 3,0 v 1 c 5.33,0 10.67,0 16,0 v -1 c 0.5,0 1.5,0 2,0 v -1 h 1 v -1 c 0.75,0 2.25,0 3,0 0,0.5 0,1.5 0,2 0.5,0 1.5,0 2,0 0,-0.5 0,-1.5 0,-2 h -1 v -1 h 1 c 0,-0.5 0,-1.5 0,-2 0.5,0 1.5,0 2,0 v -1 h 1 v -1 h 1 c 0,-0.5 0,-1.5 0,-2 h 1 v -1 h 1 1 c 0,-0.75 0,-2.25 0,-3 0.5,0 1.5,0 2,0 0,0.5 0,1.5 0,2 0.5,0 1.5,0 2,0 v 1 c 0.5,0 1.5,0 2,0 v 1 c 0.5,0 1.5,0 2,0 0,0.5 0,1.5 0,2 0.5,0 1.5,0 2,0 v 1 c 0.5,0 1.5,0 2,0 v 1 h 1 v 1 c 0.5,0 1.5,0 2,0 0,1.33 0,2.67 0,4 h -1 v 1 h -1 v 1 c -1.33,0 -2.67,0 -4,0 0,0.75 0,2.25 0,3 h -1 v 1 h -1 v 1 h -1 c 0,0.5 -0.01,1.49 -0.01,1.99 -0.71,0.01 -2.12,0.04 -2.82,0.05 -0.09,0.47 -0.26,1.4 -0.34,1.87 -2.36,1.54 -4.97,2.81 -7.76,3.3 L 95,118 c -0.5,0 -1.5,0 -2,0 v 1 c -0.5,0 -1.5,0 -2,0 v -1 c -0.5,0 -1.5,0 -2,0 v 1 c -0.75,0 -2.25,0 -3,0 0,0.5 0,1.5 0,2 -4.34,-0.01 -8.67,0 -13,0 0,-0.5 0,-1.5 0,-2 -0.5,0 -1.5,0 -2,0 v 1.01 c -1.79,0 -5.36,-0.01 -7.15,-0.02 l -0.86,-0.03 -0.06,-0.74 c -3.36,-0.78 -6.4,-2.46 -9.64,-3.6 -2.15,-1.69 -4.66,-2.8 -7.17,-3.82 -0.07,-0.39 -0.2,-1.18 -0.27,-1.57 -2.62,-0.9 -4.24,-3.13 -6.06,-5.06 L 39,105 v -1 h -1 c 0,-0.5 0,-1.5 0,-2 -0.5,0 -1.5,0 -2,0 0,-0.75 0,-2.25 0,-3 h -1 c 0,-0.75 0,-2.25 0,-3 h -1 v -1 h -1 c 0,-0.75 0,-2.25 0,-3 h 1 v -1 h 1 v 1 h 1 c 0,-0.5 0,-1.5 0,-2 h 1 c 0,-1.33 0,-2.67 0,-4 h -1 c 0,-0.5 0,-1.5 0,-2 h 1 v -1 h 1 v -1 c 0.5,0 1.5,0 2,0 v -1 c -1.33,0 -2.67,0 -4,0 0,0.5 0,1.5 0,2 h -1 v 1 c -0.5,0 -1.5,0 -2,0 v -1 h -1 v -1 c 0.5,0 1.5,0 2,0 0,-0.5 0,-1.5 0,-2 h -1 v -1 c -0.5,0 -1.5,0 -2,0 v 5 h 1 c 0,0.5 0,1.5 0,2 0.75,0 2.25,0 3,0 0,0.5 0,1.5 0,2 h -5 c 0,-1.33 0,-2.67 0,-4 h -1 c 0,-1.5 0,-4.5 0,-6 h 1 v -1 c 0.5,0 1.5,0 2,0 v -1 h -1 v -1 c -0.5,0 -1.5,0 -2,0 v 1 h -1 c 0,-1.75 0,-5.25 0,-7 h 1 c 0,-2.67 0,-5.34 0,-8 h 1 c 0,-0.75 0,-2.25 0,-3 l 0.78,-0.07 C 31.5,54.16 34.19,50.95 34.13,47.02 34.59,47.01 35.52,47 35.99,47 35.99,46.25 36,44.75 36,44 h 1 v -1 h 1 v -1 h 1 c 0,-0.5 0,-1.5 0,-2 0.5,0 1.5,0 2,0 v -1 h 1 v -1 l 0.99,-0.01 c 0.01,-0.48 0.03,-1.46 0.04,-1.95 0.43,-0.07 1.29,-0.21 1.72,-0.29 2.12,-1.57 4.38,-2.93 6.52,-4.48 L 52,31 v -1 h 1 c 0.75,0 2.25,0 3,0 v 1 c 0.5,0 1.5,0 2,0 v -1 h -1 c 0,-0.5 0,-1.5 0,-2 0.5,0 1.5,0 2,0 v 1 h 1 v 1 h 1 c 0,-0.75 0,-2.25 0,-3 0.5,0 1.5,0 2,0 v -1 c 0.5,0 1.5,0 2,0 v -1 c 0.75,0 2.25,0 3,0 v -1 m 3.12,6.16 c 0,0.42 0,1.26 0,1.68 h 0.76 c 0,-0.42 0,-1.26 0,-1.68 h -0.76 m -11.97,1.99 c 0,0.42 0,1.28 0,1.7 0.42,0 1.28,0 1.7,0 0,-0.42 0,-1.28 0,-1.7 -0.42,0 -1.28,0 -1.7,0 M 56,33 v 1 c -0.5,0 -1.5,0 -2,0 v 1 h -1 c 0,0.5 0,1.5 0,2 0.75,0 2.25,0 3,0 v 1 c 0.5,0 1.5,0 2,0 0,-0.5 0,-1.5 0,-2 h -1 c 0,-0.75 0,-2.25 0,-3 h -1 m 10.12,0.16 c 0,0.42 0,1.26 0,1.68 h 0.76 c 0,-0.42 0,-1.26 0,-1.68 h -0.76 m 25.04,5 c -0.01,0.41 -0.04,1.22 -0.05,1.63 l 0.68,0.11 c 0.28,-0.28 0.83,-0.83 1.11,-1.11 l -0.11,-0.68 c -0.41,0.01 -1.22,0.04 -1.63,0.05 m -24,2 c -0.01,0.41 -0.04,1.22 -0.05,1.63 l 0.68,0.11 c 0.28,-0.28 0.83,-0.83 1.11,-1.11 l -0.11,-0.68 c -0.41,0.01 -1.22,0.04 -1.63,0.05 m 25.99,-0.01 c 0,0.42 0,1.28 0,1.7 0.42,0 1.28,0 1.7,0 0,-0.42 0,-1.28 0,-1.7 -0.42,0 -1.28,0 -1.7,0 M 47.18,42.2 c -0.01,0.38 -0.02,1.14 -0.02,1.51 0.38,0.17 1.14,0.51 1.52,0.68 l 0.61,0.48 c 0.37,-0.01 1.11,-0.03 1.48,-0.04 l 0.06,-0.56 c -0.39,-0.4 -1.16,-1.21 -1.55,-1.61 l -0.55,-0.55 c -0.38,0.03 -1.16,0.07 -1.55,0.09 M 43,44 c 0,0.5 0,1.5 0,2 h 1 c 0,0.5 0,1.5 0,2 0.5,0 1.5,0 2,0 0,-0.5 0,-1.5 0,-2 h -1 c 0,-0.5 0,-1.5 0,-2 -0.5,0 -1.5,0 -2,0 m -2.84,3.12 v 0.76 c 0.42,0 1.26,0 1.68,0 v -0.76 c -0.42,0 -1.26,0 -1.68,0 M 38,49 c 0,0.5 0,1.5 0,2 0.75,0 2.25,0 3,0 v 1 c 0.5,0 1.5,0 2,0 0,-0.5 0,-1.5 0,-2 -0.5,0 -1.5,0 -2,0 v -1 c -0.75,0 -2.25,0 -3,0 m 9,3 c 0,0.75 0,2.25 0,3 0.75,0 2.25,0 3,0 v -1 h 1 v -1 c -0.75,0 -2.25,0 -3,0 v -1 h -1 m -10,1 c 0,1.33 0,2.67 0,4 -0.75,0 -2.25,0 -3,0 0,0.5 0,1.5 0,2 h 5 v -1 h 1 v 1 c 0.5,0 1.5,0 2,0 0,-0.5 0,-1.5 0,-2 0.5,0 1.5,0 2,0 0,-0.5 0,-1.5 0,-2 h -1 v -1 c -0.5,0 -1.5,0 -2,0 0,0.5 0,1.5 0,2 h -1 c 0,-0.5 0,-1.5 0,-2 h -1 v -1 c -0.5,0 -1.5,0 -2,0 m 6.12,5.16 c 0,0.42 0,1.26 0,1.68 h 0.76 c 0,-0.42 0,-1.26 0,-1.68 h -0.76 m -2.97,7.99 c 0,0.42 0,1.28 0,1.7 0.42,0 1.28,0 1.7,0 0,-0.42 0,-1.28 0,-1.7 -0.42,0 -1.28,0 -1.7,0 M 35,67 c 0,0.5 0,1.5 0,2 -0.5,0 -1.5,0 -2,0 v 1 h 1 c 0,0.5 0,1.5 0,2 1.33,0 2.67,0 4,0 v 1 c 0.5,0 1.5,0 2,0 0,-0.75 0,-2.25 0,-3 h -1 c 0,-0.5 0,-1.5 0,-2 -0.5,0 -1.5,0 -2,0 v -1 c -0.5,0 -1.5,0 -2,0 m 6.12,3.22 c 0.02,0.39 0.05,1.18 0.07,1.58 0.65,0 1.97,0 2.62,0 0.02,-0.4 0.05,-1.19 0.07,-1.58 -0.71,-1.33 -2.05,-1.33 -2.76,0 m -9.95,2.95 v 0.66 h 0.66 v -0.66 h -0.66 m 11.98,-0.02 c 0,0.42 0,1.28 0,1.7 0.42,0 1.28,0 1.7,0 0,-0.42 0,-1.28 0,-1.7 -0.42,0 -1.28,0 -1.7,0 m -3,1 c 0,0.42 0,1.28 0,1.7 0.42,0 1.28,0 1.7,0 0,-0.42 0,-1.28 0,-1.7 -0.42,0 -1.28,0 -1.7,0 m 1,5 c 0,0.42 0,1.28 0,1.7 0.42,0 1.28,0 1.7,0 0,-0.42 0,-1.28 0,-1.7 -0.42,0 -1.28,0 -1.7,0 m 0.01,7.97 v 0.76 c 0.42,0 1.26,0 1.68,0 v -0.76 c -0.42,0 -1.26,0 -1.68,0 m 0.96,7.04 c 0,0.42 0,1.26 0,1.68 h 0.76 c 0,-0.42 0,-1.26 0,-1.68 h -0.76 m -5.96,2.96 v 0.76 c 0.42,0 1.26,0 1.68,0 v -0.76 c -0.42,0 -1.26,0 -1.68,0 M 53,99 c 0,1.67 0,3.33 0,5 h 1 v -1 h 1 c 0,-0.5 0,-1.5 0,-2 h -1 v -1 h 1 v -1 c -0.5,0 -1.5,0 -2,0 m 2,5 v 1 h -1 c 0,0.5 0,1.5 0,2 0.75,0 2.25,0 3,0 v -1 h 1 v -1 h 1 v -1 c -1.33,0 -2.67,0 -4,0 m 48,0 c 0,0.5 0,1.5 0,2 h 1 c 0,0.5 0,1.5 0,2 0.5,0 1.5,0 2,0 v -1 h -1 v -1 h 1 c 0,-0.5 0,-1.5 0,-2 -0.75,0 -2.25,0 -3,0 m -27.85,2.21 c 0,0.39 0,1.19 0,1.58 0.67,0 2.03,0 2.7,0 0,-0.39 0,-1.19 0,-1.58 -0.67,0 -2.03,0 -2.7,0 m 23,0 c 0,0.39 0,1.19 0,1.58 0.67,0 2.03,0 2.7,0 0,-0.39 0,-1.19 0,-1.58 -0.67,0 -2.03,0 -2.7,0 m -32.88,0.92 -0.62,0.5 c -0.36,0.16 -1.09,0.48 -1.46,0.64 v 0.53 c 1.23,0.53 2.46,0.52 3.67,-0.04 -0.01,-0.39 -0.01,-1.16 -0.02,-1.54 -0.39,-0.02 -1.18,-0.07 -1.57,-0.09 m 28.85,2.03 c 0,0.42 0,1.26 0,1.68 h 0.76 c 0,-0.42 0,-1.26 0,-1.68 h -0.76 m -27.97,0.99 c 0,0.42 0,1.28 0,1.7 0.42,0 1.28,0 1.7,0 0,-0.42 0,-1.28 0,-1.7 -0.42,0 -1.28,0 -1.7,0 m 2.97,1.01 c 0,0.42 0,1.26 0,1.68 h 0.76 c 0,-0.42 0,-1.26 0,-1.68 h -0.76 m -9.97,0.99 c 0,0.42 0,1.28 0,1.7 0.42,0 1.28,0 1.7,0 0,-0.42 0,-1.28 0,-1.7 -0.42,0 -1.28,0 -1.7,0 M 75,113 c 0,1.33 0,2.67 0,4 -0.5,0 -1.5,0 -2,0 v 1 c 0.75,0 2.25,0 3,0 v -1 c 0.5,0 1.5,0 2,0 0,-0.5 0,-1.5 0,-2 h -1 c 0,-0.5 0,-1.5 0,-2 -0.5,0 -1.5,0 -2,0 z" transform="matrix(0.16451433,0,0,0.16451433,-3.7920269,-3.9224114)"/></svg>
